/* XPM */
static char *de357d2fbfdb4be6a490b22de0509a21zkPLMPBg8K8Q7ERa[] = {
/* columns rows colors chars-per-pixel */
"64 64 131 2 ",
"   c #010203",
".  c #020304",
"X  c #020305",
"o  c #030406",
"O  c #030407",
"+  c #030408",
"@  c #030508",
"#  c #040509",
"$  c #040608",
"%  c #05070B",
"&  c #05070D",
"*  c #06090F",
"=  c #070A0F",
"-  c #060911",
";  c #080B13",
":  c #080C13",
">  c #080C16",
",  c #0A0F17",
"<  c #090E19",
"1  c #0A0F1A",
"2  c #0B101A",
"3  c #0B111A",
"4  c #0C121B",
"5  c #0D1323",
"6  c #0E1524",
"7  c #0F1624",
"8  c #0F1628",
"9  c #111929",
"0  c #131C2B",
"q  c #11192F",
"w  c #131C2F",
"e  c #131C30",
"r  c #141D30",
"t  c #141D36",
"y  c #162131",
"u  c #162037",
"i  c #172238",
"p  c #17223D",
"a  c #192539",
"s  c #192639",
"d  c #19263F",
"f  c #1B283D",
"g  c #1A2740",
"h  c #1A2747",
"j  c #1D2B41",
"k  c #1B2847",
"l  c #1D2A48",
"z  c #1D2B49",
"x  c #1E2C4A",
"c  c #21314B",
"v  c #22324B",
"b  c #213057",
"n  c #24365A",
"m  c #2A3E67",
"M  c #2B3F73",
"N  c #2C4174",
"B  c #304676",
"V  c #314877",
"C  c #314878",
"Z  c #36517A",
"A  c #314884",
"S  c #375188",
"D  c #39538A",
"F  c #3A568A",
"G  c #3D5B8C",
"H  c #3F5D8C",
"J  c #365397",
"K  c #395398",
"L  c #385498",
"P  c #3A5899",
"I  c #3D5A9B",
"U  c #3D5B9B",
"Y  c #3E5B9C",
"T  c #3F5D9C",
"R  c #405D9D",
"E  c #415F9E",
"W  c #42629D",
"Q  c #43669E",
"!  c #4668A0",
"~  c #486AA1",
"^  c #486BA1",
"/  c #4160AF",
"(  c #4261AF",
")  c #4465B1",
"_  c #4668B2",
"`  c #486BB3",
"'  c #496BB4",
"]  c #4B6EB6",
"[  c #4D72B6",
"{  c #5279B9",
"}  c #537BB9",
"|  c #4668C5",
" . c #476BC7",
".. c #476CC6",
"X. c #486CC7",
"o. c #4B6EC9",
"O. c #4C6FC9",
"+. c #4B71C9",
"@. c #4B71CA",
"#. c #4E72CB",
"$. c #4D74CA",
"%. c #4F76CB",
"&. c #4F74CC",
"*. c #4F78CC",
"=. c #5075CD",
"-. c #5076CC",
";. c #5077CD",
":. c #5078CC",
">. c #5278CE",
",. c #547BCF",
"<. c #537CCD",
"1. c #537DCD",
"2. c #527CCE",
"3. c #547CCE",
"4. c #547BD0",
"5. c #567ED1",
"6. c #5682D0",
"7. c #5784D0",
"8. c #5883D2",
"9. c #5983D2",
"0. c #5885D0",
"q. c #5886D1",
"w. c #5987D1",
"e. c #5A86D3",
"r. c #5B88D3",
"t. c #5C88D3",
"y. c #5D89D4",
"u. c #5D8AD4",
"i. c #5E8BD4",
"p. c #5F8CD5",
"a. c #5F8DD5",
/* pixels */
";.;.;.;.;.;.;.;.7.w.w.w.w.w.w.w.w.w.w.w.w.w.w.w.:.$.:.:.;.;.;.;.;.;.;.;.;.;.;.;.w.w.w.w.w.w.w.w.w.w.w.w.w.w.w.w.*.:.;.;.;.;.;.;.",
";.;.;.;.;.;.;.;.2.w.w.w.w.w.w.w.w.w.w.w.w.w.w.w.w.*.-.:.;.;.;.;.;.;.;.;.;.;.;.;.:.w.w.w.w.w.w.r.w.w.w.w.w.w.w.w.w.:.;.;.;.;.;.;.",
";.;.;.;.;.;.;.;.;.7.w.w.w.w.w.w.w.w.w.r.7.w.6.u.r.:.:.-.;.;.;.;.;.;.;.;.;.;.;.;.:.w.w.9.6.2.2.:.1.7.w.w.w.w.w.w.w.:.,.;.;.;.;.;.",
";.;.;.;.;.;.;.;.;.2.w.w.w.w.w.w.w.6.*.#.$.$.$.$.2.6.;.:.;.;.;.;._ I _ _ I _ I ) L J ( P K #.%.%.%.$.$.6.w.w.w.r.w.6.%.;.;.;.;.;.",
";.;.;.;.5.5.5.5.5.5.i.i.a.a.a.[ E ` ` I E ` ` ` T ` _ W ` ] E C ] ] W ` E ' K K / J I 3.:.3.:.4.2.*.3.3.3.r.p.p.a.a.6.5.;.;.;.;.",
";.;.;.;.5.5.5.5.5.5.9.a.a.G B ` ` I E ` ` ` I ` ` T ) ( ` D D D i ; w 9 & 8 & 7 * # q ; : ' E W 2.2.3.:.:.3.u.p.a.a.i.5.;.;.;.;.",
";.;.;.;.5.5.5.5.5.5.5.! G m D u ; 9 9 * * 9 6 9 - 9 w * 8 w >   g g - l > h < < h > > ;.3.3.:.:.2.3.:.3.5.3.3.u.a.a.a.9.;.;.;.;.",
";.;.;.;.5.5.5.5.5.5.W n B @   z u ; < z z z < z z 3 z z h # < z                           : > E I 3.3.3.:.3.3.6.a.a.a.u.;.;.;.;.",
"%.%.;.-.5.5.5.5.5.5.C > #   l                                                               > < 3.3.:.5.3.3.:.5.i.a.r.i.:.%.;.;.",
"o.o.+.#.,.,.5.5.5.E &   >                                                                     < 3.:.5.:.3.:.5.:.e.a.i.w.:.#.| o.",
"| | | | o.o.o.#.;.E   X.                                                                    3.3.:.5.3.3.:.5.3.3.5.5.:.5.+. .| | ",
"| | | | o.o.o.o.o.> -                                                                     K E ;.5.:.3.:.5.:.3.:.%.3.3.2.%.+.| | ",
"| | | | o.o.o.o.o.- 5                                                                   - o.;.4.:.3.:.5.3.3.:.5.3.3.:.3.$.$. . .",
"| | | | o.o.o.o.o.                        o             o   o * / J p O   ; o       +     +   < 3.3.5.:.3.:.5.:.3.:.5.3.$.$.+.| ",
"| | | | o.o.o.o.o.              B d # o - o   # > >   o 3 # o > > # < o.o.o.o.o.O.o.o.o.o.o.o.;.:.5.:.3.:.5.3.3.:.5.*.2.$.$.+. .",
"| | | | o.o.o.o.< q               < 2.3.3.:.:.3.3.3.3.:.:.5.:.:.o.o.o.o.o.o.o.o.O.O.o.o.o.o.o.#.5.:.3.3.5.:.3.:.5.:.2.2.$.$.%.+.",
" .| | | X.o.o.o.< -             - :.:.3.3.5.:.5.:.3.3.5.:.5.:.5.=.o.o.o.o.o.o.o.o.o.o.o.o.o.o.o.:.3.3.3.3.:.5.:.3.3.5.:.%.+.%.+.",
"+.| | | o.o.o.o.h q             ( 3.3.3.3.:.3.:.5.:.3.:.3.:.3.3.>.o.o.o.o.o.o.o.o.o.o.o.o.o.o.o.#.:.5.:.3.3.:.5.:.3.:.5.#.%.$.%.",
"#. . .| o.o.o.o.< -             K :.3.3.:.5.3.3.:.5.:.5.3.5.:.3.,.#.o.o.o.o.o.o.o.o.X.o.o.o.o.o.o.:.:.5.5.:.3.3.5.:.3.:.$.$.$.$.",
"%.+.| | o.o.o.o.h 6             ( #.,.:.3.:.5.:.3.3.3.:.3.:.5.:.-.;.o.o.o.o.o.;.;.4.,.;.-.=.=.o.o.#.3.:.:.5.:.3.:.5.3.3.$.$.$.$.",
"$.$.| | o.o.o.o.< 8             ( o.:.:.3.4.;.5.:.3.:.3.:.5.:.3.5.3.=.#.;.4.5.5.5.5.5.5.5.5.5.5.;.#.:.3.4.:.5.:.3.3.5.:.$.$.$.$.",
"$.$.+.| o.o.o.o.t *           o I ,.5.u.i.w.w.9.3.5.3.3.3.:.5.3.-.,.5.3.5.5.5.5.5.5.5.5.5.5.5.5.5.5.4.;.:.5.:.5.:.3.:.3.$.$.$.$.",
"$.$.%. .o.o.o.o.;               ] 5.5.u.a.a.a.a.p.u.w.3.3.3.:.3.:.r.p.6.5.5.5.5.5.5.5.5.5.5.5.5.5.5.5.w.5.:.3.:.5.:.3.:.$.$.$.$.",
"$.$.#.+.o.o.o.o.# 6             5.5.5.9.a.a.a.a.p.p.p.p.9.:.3.,.u.p.p.u.5.5.5.5.5.5.5.5.5.5.5.5.5.5.5.9.i.,.3.3.:.5.2.2.$.$.$.$.",
"$.$.$.$.#.o.o.o.; 6             ] E E ] { ^ } p.p.p.p.p.p.e.:.u.p.p.a.a.u.5.5.5.5.5.5.5.5.5.5.5.5.5.5.5.u.e.,.-.3.3.5.:.%.$.$.$.",
"$.$.$.$.:.o.o.%.@             w E ] ] E [ p.p.^ } } ^ } ^ } W ^ Q } ^ Q Q [ 5.5.5.5.5.5.5.5.5.5.5.5.5.5.w.a.5.,.:.3.:.5.%.#.$.$.",
"$.$.$.$.4.#.+.3.              # 7 ; - 9 w = s Q Z ^ ^ } Q ^ ^ { ^ ^ ^ } p.9.5.5.5.5.5.5.5.5.5.5.5.5.5.5.5.u.w.,.5.:.3.:.$.$.$.$.",
"$.*.$.$.3.*.o.3 u               3 z z < s F ^ ; y y = 0 : 3 * # : 4 = , , a E W ] 5.5.5.5.5.5.5.5.5.5.5.5.9.u.;.:.5.3.3.$.$.$.$.",
"r.7.w.7.r.6.$.z :                             o o s > v 3 3 3 v 1 4 , v p.p.9.,.5.5.5.5.5.5.5.5.5.5.5.5.5.5.w.,.2.7.r.r.7.w.6.6.",
"w.r.w.w.a.a.r.z q                                 o                         > i W ` 5.5.5.5.5.5.5.5.5.5.5.5.6.i.p.a.a.p.w.w.w.w.",
"w.w.w.w.a.a.a.3 w                                                             , x 5.5.5.5.5.5.5.5.5.5.5.5.5.5.u.p.p.p.p.w.w.w.w.",
"w.w.w.w.a.a.a.c 9                                                               z 5.5.5.5.5.5.5.5.5.5.5.5.5.5.w.p.p.p.p.w.w.w.w.",
"w.w.w.w.a.a.a.4 -                                                             e.9.5.5.4.5.5.5.5.5.5.5.5.5.5.5.5.i.i.p.p.r.w.w.w.",
"w.w.w.w.a.a.a.v >                                                           Q } w.%.;.=.#.#.#.#.;.;.4.5.5.4.5.5.9.i.p.p.r.w.w.w.",
"w.w.w.w.a.a.a.v j             +     >                                   o f w.,.5.#.o.o.o.o.o.o.o.o.o.o.;.4.5.5.5.i.i.p.w.w.w.w.",
"w.w.r.u.a.a.a.v Q             ) ( o.o.o.o.o.o.K ) - o > o   # # O     O o     # z *.o.o.o.o.o.o.o.o.o.o.o.o.=.5.5.9.p.p.w.w.w.w.",
"w.w.w.w.a.a.a.4 ^             t J o.o.o.o.o.o.o.o.o.%.%.3.3.3.:.:.i.p.5.,.,.:.3.5.:.%.o.o.o.o.o.o.o.o.o.o.o.o.#.4.5.a.a.w.w.w.w.",
"w.w.w.w.a.p.a.4 { #           o / o.o.o.o.o.o.o.o.o.#.3.:.5.:.5.3.3.u.3.,.,.3.3.:.5.%.o.o.o.o.o.o.o.o.o.o.o.o.o.%.5.6.a.w.w.w.w.",
"w.w.w.w.p.p.i.v u.              J o.o.o.o.o.o.o.o.o.o.:.5.:.3.:.3.3.3.3.3.3.:.3.3.:.,.#.o.o.o.o.o.o.o.o.o.o.o.o.o.%.5.r.w.w.w.w.",
"w.w.w.w.p.p.p.p.v *           o / o.o.o.o.o.o.o.o.o.o.#.:.3.3.5.:.,.3.:.3.:.3.3.3.3.:.;.o.o.o.o.o.o.o.o.o.o.o.o.o.%.5.7.w.w.w.w.",
"*.*.*.*.6.w.9.u.3 :             K o.o.o.o.o.o.o.o.o.o.o.;.,.,.:.3.:.5.:.3.:.5.:.3.:.5.:.#.o.o.o.o.o.o.o.o.o.o.o.o.#.5.>.#.#.$.$.",
"$.%.$.$.3.:.,.:.z 9             / o.o.o.o.o.o.o.o.o.o.o.%.-.3.3.3.3.:.5.3.3.:.5.3.3.:.5.;.o.o.o.o.o.o.o.o.o.o.o.o.O.o.o. .%.$.$.",
"$.$.$.$.3.3.:.3.< :             K o.o.o.o.o.o.o.o.o.o.o.o.:.3.:.5.:.3.3.5.:.3.3.5.:.3.3.:.%.o.o.o.o.o.o.o.o.o.o.o.o.o.o.| #.$.$.",
"$.$.$.$.3.:.3.3.z *             K o.o.o.o.o.o.o.o.o.o.o.o.#.:.5.:.5.:.3.:.5.:.3.:.5.:.3.3.-.o.o.o.o.o.o.o.o.o.o.o.o.o.o.|  .$.$.",
"$.$.$.$.:.3.:.5.< q             / o.o.o.o.o.o.o.o.o.o.o.o.o.:.3.3.3.5.:.3.3.5.:.3.3.5.:.3.3.#.o.o.o.o.o.o.o.o.o.o.o.o.o.| | #.+.",
"$.$.$.%.3.3.5.:.z 9             / o.o.o.o.o.o.o.o.o.o.o.o.o.%.;.:.3.:.5.:.3.:.5.:.3.:.5.:.3.-.o.o.o.o.o.o.o.o.o.o.o.o.o.| | ..$.",
"$.$.%.+.:.5.:.3.< -             K o.o.o.o.o.o.o.o.o.o.o.o.o.o.%.5.:.3.:.5.:.3.:.5.:.3.:.5.:.3.;.o.o.o.o.o.o.o.o.o.o.o.o.| | | @.",
"$.$.#.%.5.:.3.3.< -             M / K / K / K / o.o.o.o.o.o.o.#.:.5.3.3.:.5.3.3.:.5.3.3.:.5.3.:.o.o.o.o.o.o.o.o.o.o.+. .| | | ..",
"+.$.$.$.3.3.:.5.z -             N ( J ( J ( o.o.J / K K ( K K / :.2.3.I _ W ,.,.5.:.:.:.:.:.3.-.#.o.o.o.o.o.o.o.o.o.o.o. .| | | ",
" .$.$.$.3.:.5.:.z 9             * q * 5 & q & q A M K K K ( o.o.L B S E :.3.I I ` E W ` E E E E ` o.o.o.o.o.o.o.o.o.o.o.| | | | ",
"| +.$.$.;.5.3.3.< =             & t - k < t A A & e - # 8 - # q b m B : i ; S S B ` T W R R ` ,.4.#.o.o.o.o.o.o.o.o.o.o.| | | | ",
"| ..$.$.6.:.3.:.> o                               # t : < t M M ;   # * n m * & r # % 6 % # : : u I J / o.o.o.o.o.o.o.o.| | | | ",
"| | +.$.*.2.-.3.-                                                 - ;       >   > i < 3 < < z ;.4.2.#.o.o.o.o.o.o.o.o.o.| | | | ",
"| |  .$.3.3.6.:.o                                                                                 : u J ( o.o.o.o.o.o.o.| | | | ",
"| | | +.:.3.:.3.  E                                                                                 > k o.o.o.o.o.o.o.o.| | | | ",
"| | |  .3.3.3.3.<                                                                                     l o.o.o.o.o.o.o.X.| | | | ",
"| | | | :.3.:.3.;                             o                                                     p.p.:.o.o.o.o.o.o.o.X.| | | ",
"| | | | #.3.3.3   w.            ^ } > o o o                   t                                   ^ } i.u.#.o.o.o.o.o.o.| | | | ",
"| | | | o.:.,.> 3.3     O Z ;       3 a.p.r.3.5.E ' > o               E >                     o f i.i.a.a.6.X.o.o.o.o.X.X.X.| | ",
"#.#.%.;.:.4.6.-.w.3 , ; R ,   O p.p.i.a.p.u.5.5.5.5.5.5.5.3.5.5.P E >     3 ^ Q 3   o o             # v i.u.%.o.o.o.o.#.X.X.X.o.",
"%.;.;.;.:.;.w.w.w.w.w.Q 0., , t.w.w.w.w.w.w.2.;.;.;.;.;.;.;.;.;.;.;.;.;.-.;.w.w.w.w.w.w.w.w.w.w.w.w.w.w.w.w.-. .+.#.;.;.-.;.;.;.",
";.;.;.;.-.:.:.r.0.w.w.w.0.0.w.0.w.w.w.w.w.w.w.:.;.;.;.;.;.;.;.;.;.;.;.;.:.;.:.w.w.w.w.w.w.w.w.w.w.w.w.w.w.w.w.%.;.;.;.;.-.;.;.;.",
";.;.;.;.:.:.%.0.w.w.w.w.w.w.w.w.w.w.w.w.w.w.w.:.;.;.;.;.;.;.;.;.;.;.;.;.;.;.:.w.w.w.w.w.w.w.w.w.w.w.w.w.w.w.w.-.;.;.;.;.;.;.;.;.",
";.;.;.;.:.:.%.6.w.w.w.w.w.w.w.w.w.w.w.w.w.w.w.w.;.;.;.;.;.;.;.;.;.;.;.;.;.:.:.;.w.w.w.w.w.w.w.w.w.w.w.w.w.w.e.w.;.;.;.;.;.;.;.;."
};
