/* XPM */
static char *_e554829f9e14df2d8ff2aba3bdcce3bSZPRNdxLZLGuFWBX[] = {
/* columns rows colors chars-per-pixel */
"64 64 115 2 ",
"   c black",
".  c #010203",
"X  c #010204",
"o  c #020305",
"O  c #030406",
"+  c #030407",
"@  c #030408",
"#  c #030509",
"$  c #05070B",
"%  c #05080D",
"&  c #05080E",
"*  c #070A0F",
"=  c #070A13",
"-  c #070B13",
";  c #080B13",
":  c #080C13",
">  c #080C14",
",  c #080C16",
"<  c #0A0F17",
"1  c #090E19",
"2  c #0A0F1A",
"3  c #0B101A",
"4  c #0C121B",
"5  c #11192A",
"6  c #121A2B",
"7  c #131C2A",
"8  c #11192C",
"9  c #131C30",
"0  c #141D36",
"q  c #162131",
"w  c #162137",
"e  c #172238",
"r  c #192539",
"t  c #19253F",
"y  c #1A2747",
"u  c #1D2B41",
"i  c #1D2A48",
"p  c #1E2C4A",
"a  c #22324B",
"s  c #24365A",
"d  c #2B3F73",
"f  c #304676",
"g  c #314878",
"h  c #354E79",
"j  c #36517A",
"k  c #314884",
"l  c #354E87",
"z  c #364F88",
"x  c #375188",
"c  c #39538A",
"v  c #3F5D8C",
"b  c #395398",
"n  c #3A5699",
"m  c #3D5B9B",
"M  c #3F5D9C",
"N  c #405F9D",
"B  c #415F9E",
"V  c #4566A0",
"C  c #4668A0",
"Z  c #486BA1",
"A  c #4160AF",
"S  c #4768B3",
"D  c #486BB3",
"F  c #4B6EB6",
"G  c #5178B9",
"H  c #537BB9",
"J  c #4668C5",
"K  c #476BC7",
"L  c #476CC6",
"P  c #486DC7",
"I  c #4A6FC8",
"U  c #4B6EC9",
"Y  c #4C6FC9",
"T  c #4B71CA",
"R  c #4E72CB",
"E  c #4D74CA",
"W  c #4F76CB",
"Q  c #4F78CC",
"!  c #5075CD",
"~  c #5076CC",
"^  c #5076CD",
"/  c #5077CD",
"(  c #5178CD",
")  c #527BCD",
"_  c #5278CE",
"`  c #5379CF",
"'  c #517BCE",
"]  c #537BCE",
"[  c #547BCF",
"{  c #537CCD",
"}  c #537DCD",
"|  c #527CCE",
" . c #547CCE",
".. c #557DCF",
"X. c #547BD0",
"o. c #567FD0",
"O. c #567ED1",
"+. c #5780D1",
"@. c #5682D0",
"#. c #5783D0",
"$. c #5784D0",
"%. c #5983D1",
"&. c #5883D2",
"*. c #5885D0",
"=. c #5886D1",
"-. c #5987D1",
";. c #5A86D2",
":. c #5B88D3",
">. c #5C89D3",
",. c #5C89D4",
"<. c #5D8AD4",
"1. c #5E8BD4",
"2. c #5E8CD5",
"3. c #5F8CD5",
"4. c #5F8DD5",
/* pixels */
"/ / / / / / / / $.-.-.-.-.-.-.-.:.=.=.-.-.-.-.-.{ | E ] / / / / / / / / / / / / -.*.:.-.-.-.-.-.-.-.-.-.-.-.-.-.| ~ / / / / / / ",
"/ / / / / / / / | -.-.-.-.-.-.-.:.$.-.-.-.-.-.-.=.W W W / / / / / / / / / / / / | *.-.-.-.-.=.$.-.-.-.-.-.-.-.-.*.( / / / / / / ",
"/ / / / / / / / / $.-.-.-.-.-.-.-.:.%.-.=.$.=.-.$.] W ] / / / / / / / / / / / / | @.*.@.@.] ( @.@.@.-.-.:.-.-.-.*.| | / / / / / ",
"/ / / / / / / / / | -.-.-.-.-.-.$.+.Q R W E I Q | +.W W / / / / / / / / / / / R I L R T P W W W P E W @.*.-.-.-.*.*.W W / / / / ",
"/ / / / O.O.O.O.O.O.<.4.4.4.4.%.] ] ] ] ] ] ] ] o.Q W X.O.O.O.O.O.O.O.O.O.X.R U U U ] ] ] ] ] ] { { ( ....>.4.4.4.4.%.O./ / / / ",
"/ / / / O.O.O.O.O.O.%.4.4.<...] ] ] ] ] ] ] ] ] | | ] U ] O.O.O.O.O.O.O.W U U U U U R ] ] ] ] ] | ( ..( ..( >.4.4.4.<.O./ / / / ",
"/ / / / O.O.O.O.O.O.O.<.>.[ ] ] ] ] ] ] ] ] ] ] | ] ] U U / O.O.O.O.X.R U U U U U U U / ] ] ] ] { | D ..( | ..:.4.4.4.%./ / / / ",
"/ / / / O.O.O.O.O.O.O.+.] ] ] ] ] ] ] ] ] ] ] ] ] ] ] ] U U / O.O.O.Y U U U U U U U U R ] ] ] ] D | N ( ..{ ( $.4.4.4.<./ / / / ",
"W W W W O.O.O.O.O.O.O.Y / ] ] ] ] ] ] ] ] ] ] ] ..( [ ( R Y Y ~ O.R U U U U U U U U U U [ ] ] D x ] w ] ] D ] ] <.4.4.4.] W ] W ",
"T U T R X.] O.O.O.O.] U R ] ] ] ] ] ] ] ] ] ] ] ( [ { [ ~ Y Y Y / U U U U U U U U U U U R | ] m 5 ] : ] ] M ] ] -.4.<.%.] J U J ",
"J J J J U U R R / X.R U U ] M ] ] ] ] ] ] ] ] ] ..( [ { [ ! Y Y U U U U U U U U U U U U U W ] w % M   ] i M D ] O.| ] ] W J J J ",
"J J J J U U U U U U U U b R M M ] ] ] ] ] ] ] ] { ..( [ { ! Y L U U U U U U U U U U U U U R ] % ,       3 w M ] ] ] ] ] E T J J ",
"J J J J U U U U U U U b d b = S ] M ] ] ] ] ] ] ] ] ] ] { [ Y Y U U U U U U U U U U U U U U M ,           $ M ] ] ] ] ] E E L J ",
"J J J J U U U U U U U b # k = 3 N N M ] ] ] ] ] ] ] ] ] [ ( ~ Y U U U U U U U U U U U U U U b             X M | ] ] ] ] E E T J ",
"J J J J U U U U U U U - % ,   i 3 f x ] ] ] ] ] ] ] ] ] { [ { ! U U U U U U U U U U U U U U X =             ] ] ] ] ] ] E E E L ",
"J J J J U U U U U U U -             f f ] ] ] ] ] ] ] ] [ { _ ~ U U U U U U U U U U U U U b   =           = ] ] ] ] ] | E E E T ",
"K J J J U U U U U U U =             , M M ] ] ] {  .[ _  . .{ [ Y U U U U U Y Y U U U U Y b               e ] ] ] ] ] ] W E E E ",
"T J J J U U U U U U U %               X.f M ] ] _ { {  .[ [ [ _ / U U U U Y Y Y U U U U U ,               2 ] ] ] ] ] ] R E E E ",
"R L J J U U U U U U 2 %             5   D M D ] { { { ( { { [ { X.R U U U U Y Y U U U U k   %             4 ] ] ] ] ] ] E E E E ",
"R T J J U U U U U U 2 X               2   M M M _ { { { _ [ { [ X./ U U U U Y / ] / [ D z               = 2 ] ] ] ] ] ] E E E E ",
"E E J J U U U U U U 2                   $ $ M M { { { { { { { { ] ] R R / X.O.O.O.O.O.N O %             3 | ] ] ] ] ] ] E E E E ",
"E W T J U U U U U U = $                     # %.f { { { { { ( } ] ] O.X.O.O.O.O.O.O.O.5 X g             2 ..] ] ] ] ] ] E E E E ",
"E E T L U U U U Y U ;                         , H C %. .(  .} } | -.<.%.O.O.O.O.O.O.N = X           % 3 2 ] ] ] ] ] ] ] E E E E ",
"E E W T U U U U Y /   $                         C B 3.3.o.{ } } <.4.<.<.O.O.O.O.O.O.N             $ = 3 <.] ] ] ] ] ] ] E E E E ",
"E E E E R U U U W X.  =                       $   4.j 4.4.*.} -.4.4.4.4.%.O.O.O.O.O.,               3 3 <.-.] ] ] ] ] ] E E E E ",
"E E E E W U U W O.V               O e             4 H Z 4.1.*.>.4.4.4.4.<.O.O.O.O.O.O %           - 3 3 %.4...] ] ] ] ] E E E E ",
"E E E E ] R U X.X.V               , , ,             4.N 4.4.4.4.4.4.4.4.4.%.O.O.O.F             X , 2 O.O.<.-.[ ] ] ] ] E E E E ",
"E Q E E X.W T O.O.  %               p r           a   Z Z 4.4.4.4.4.4.4.4.<.O.O.O.B               r O.O.O.%.:.] ] ] ] ] E E E E ",
":.$.-.$.:.$.W O.O.  %             4 4 , 2           $ 4 N >.4.4.4.4.4.4.4.4.%.O.O.$ $             3 O.O.O.O.:.] | $.=.:.+.@.$.+.",
"-.:.-.-.4.4.-.o.O.X             , O.i O.,             % Z Z 4.4.4.4.4.4.4.4.<.O.O.X $             4 O.O.O.O...4.4.4.4.4.:.:.:.$.",
"-.-.-.-.<.4.4.-.O.              : O.O.4 p r             1.N 1.1.4.4.4.4.4.4.4.&.c               , O.O.O.O.O.O.>.4.4.4.4.-.-.=.=.",
"-.-.-.-.4.4.4.<.2 =             , ..] / 2 ,           , . Z Z 1.4.4.4.4.4.4.<.H c               - O.O.O.O.O.O.*.4.4.4.4.-.-.-.-.",
"-.-.-.-.4.4.4.4.3 5             = U U U y b 2           X 2 v 4.4.4.4.4.4.4.4.Z   V             3 O.O.O.O.O.O.O.<.4.4.4.:.:.-.-.",
"-.-.-.-.4.4.4.4.4 =           X b U U U 2 U 0 #           # v 4.4.4.4.4.4.4.4.u   z             2 ] X.O.O.O.O.O.%.4.4.4.:.$.-.-.",
"-.-.-.-.4.4.4.4.4 %             b Y U U P 2 2 =             ..h 4.4.4.4.4.>.&., O           X y U U U U W X.O.O.O.<.4.4.-.-.-.-.",
"-.-.-.:.4.4.4.4.4 r             A U U U U U 2 ;           $ , c <.4.4.<.+.] S 9           # = 2 U U U U U U R O.O.+.4.4.-.-.-.-.",
"-.-.-.-.4.4.4.4.a ;             b U U U U U y b 2             | f <.4...] ] f             # = , U U U U U U U R o.O.<.4.-.-.-.-.",
"-.-.-.-.4.4.4.4.4 q             A U U U U U 2 P 0             , M N >.] ] M = :           O 2 2 U U U U U U U U R O.$.4.-.-.-.-.",
"-.-.-.-.4.4.4.4.4 ,           X b U U U U U U 2 , 2             M x | [ ..D   D             2 U U U U U U U U U U / O.,.-.-.-.-.",
"-.-.-.-.4.4.4.4.a 7             A U U U U U U y U ;           X   M s ] ] , =           X y U U U U U U U U U U U R O.$.-.-.-.$.",
"/ W Q Q +.$.%.:.3 q             A U U U U U U U 2 0 y             3 D f X.e X             2 U U U U U U U U U U U W O.W R R W E ",
"R W E E ] | ] ..i =           # b U U U U U U U 2 U = ,             3 M f $           X t y Y U U U U U U U U U U R U U J W E E ",
"E E E E ] ] ] ] 3 =             b U U U U U U U U 2 2 =           e   3 f             , = 2 U U U U U U U U U U U U U U J T E E ",
"E E E E ] ] ] ] i 9             A U U U U U U U U U , = =             X                 w / U U U U U U U U U U U U U U J K E E ",
"E E E E ] ] ] ] p =             b U U U U U U U U U y U = =                             3 X.R U U U U U U U U U U U U U J J T E ",
"E E E E ] ] ] ] 2 =           X b U U U U U U U U U U 2 y 0 8                           ] | W U U U U U U U U U U U U U J J L E ",
"E E T W ] ] ] ] 3 2             b U U U U U U U U U U U 2 2 = %                     X e ] ] ] R U U U U U U U U U U U U J J J T ",
"E E W R ] ] ] ] i M             U U U U U U U U U U U U P 2   , %                     e ] ] ] ] U U U U U U U U U U U U J J J L ",
"P E E E ] ] ] ] , M           X R U U U U U U U U U U U U U U X     X                 2 ] ] ] ] R U U U U U U U U U U U J J J J ",
"L W E E ] ] ] ] 2 M 2       w p W U U U U U U U U U U U U U U U 4 : ;               X 2 ] ] ] ] Q U U U U U U U U U U U J J J J ",
"J I E E ] ] ] ] 3 ] 2 2   ] : 2 X.E U U U U U U U U U U U U U U Y 2 ,               3 ] ] ] ] ] ] T U U U U U U U U U U J J J J ",
"J L E E ] ] ] ] ] ] 2 2 % ..2 2 X.W U U U U U U U U U U U U U U U 2     ,       f e i ] ] ] ] ] ] ] U U U U U U U U U U J J J J ",
"J J I E | | ] ] ] ] ] ] M | 2 3 O.:.X.X.W E T U U U U U U U U U Y U 2 2         , 2 2 O.| o.] | ] ] R P U U U U U U U U J J J J ",
"J J L W ..| ] ] ] ] ] ....+.>.4.4.4.,.O.O.O.O.o.W R U U U U U U Y U R ] 2 : $ :     4 4.4.4.,.+.] ] ] U U U U U U U U U J J J J ",
"J J J I | ] ] ] ] ] ] ..4.4.4.4.4.4.4.O.O.O.O.O.O.O.X.R U U U U U U U W | ..V 4.4 4 4.4.4.4.4.4.4.$.o.R U U U U U U U U J J J J ",
"J J J L ..] ] ] ] ] %.4.4.4.4.4.4.4.4.,.O.O.O.O.O.O.O.O.X.U U U U U U R +.4.4.4.4.4.4.4.4.4.4.4.4.4.,.X.U U U U U U U U J J J J ",
"J J J J ] ] ] ] ] ..>.4.4.4.4.4.4.4.4.4.$.+.O.O.O.O.O.O.O.X.R U U U Y / <.<.4.4.4.4.4.4.4.4.4.4.4.4.4.4.W U U U U U U U J J J J ",
"J J J J U ] ] ] [ -.4.4.4.4.4.4.4.4.4.4.,.o.O.O.O.O.O.O.O.O.O.E U U / O.%.<.4.4.4.4.4.4.4.4.4.4.4.4.4.4.<.R U U U U T U J J J J ",
"J J K J U W X.] ..4.4.4.4.4.4.4.4.4.4.4.<.$.O.O.O.O.O.O.O.O.O.X.U R O.O.O.<.4.4.4.4.4.4.4.4.4.4.4.4.4.4.4.O.U U U U U P J J J J ",
"Y E W E W X.o.o.-.4.4.4.4.4.4.4.4.4.4.4.4.4.O.O.O.O.O.O.O.O.O.O./ O.O.O.O.%.4.4.4.4.4.4.4.4.4.4.4.4.4.4.4.<.R U U U U R P P U Y ",
"W W / / _ W $.=.-.-.-.-.:.-.-.-.-.-.-.-.=.=.o.Q W / / / / / / / / / / / / / %.:.-.-.-.-.-.-.-.-.:.-.-.-.-.-.Q U T R / / / / / / ",
"W X./ / W W o.$.-.-.-.-.-.-.-.-.-.-.-.-.,.$.@.W W _ / / / / / / / / / / / / ] :.-.-.-.-.-.-.-.-.-.-.-.-.-.-.$.Q W / / / / / / / ",
"/ / / / ] W ] +.-.-.-.-.-.-.-.-.-.-.-.-.$.=.+.o./ / / / / / / / / / / / W W W $.-.-.-.-.-.-.-.-.-.-.-.-.-.-.$.o.W ] / / / / / / ",
"/ / / / W W W ] -.-.-.-.-.-.-.-.-.-.-.-.-.,.,.+./ / / / / / / / / / / Q W W W o.-.-.-.-.-.-.-.-.-.-.-.-.-.-.-.+.W W / / / / / / "
};
