/* XPM */
static char *_22ba044e3534a8bee24846953e2abb1WiHmrHihED1v6jNp[] = {
/* columns rows colors chars-per-pixel */
"64 64 129 2 ",
"   c black",
".  c #020306",
"X  c #030407",
"o  c #030507",
"O  c #030408",
"+  c #030508",
"@  c #040509",
"#  c #05070B",
"$  c #05070D",
"%  c #05080D",
"&  c #070A0F",
"*  c #060911",
"=  c #070A11",
"-  c #070A13",
";  c #080B13",
":  c #080C13",
">  c #080C14",
",  c #090D14",
"<  c #090E19",
"1  c #0A0F1A",
"2  c #0B101A",
"3  c #0C111B",
"4  c #0C121B",
"5  c #0D1323",
"6  c #0F1628",
"7  c #11192A",
"8  c #131C2B",
"9  c #11192F",
"0  c #131C2F",
"q  c #141D30",
"w  c #141D36",
"e  c #141E36",
"r  c #162131",
"t  c #162137",
"y  c #182335",
"u  c #172238",
"i  c #17223D",
"p  c #192639",
"a  c #1A2747",
"s  c #1D2B41",
"d  c #1B2847",
"f  c #1D2B49",
"g  c #1E2C4A",
"h  c #21314B",
"j  c #213057",
"k  c #24365A",
"l  c #293D67",
"z  c #2B3F73",
"x  c #2C4174",
"c  c #2D4474",
"v  c #2E4575",
"b  c #304676",
"n  c #314878",
"m  c #334C78",
"M  c #354E79",
"N  c #36517A",
"B  c #314884",
"V  c #375287",
"C  c #375188",
"Z  c #375288",
"A  c #39538A",
"S  c #395489",
"D  c #3B588A",
"F  c #3F5D8C",
"G  c #395398",
"H  c #3A5699",
"J  c #3A5899",
"K  c #3D5A9B",
"L  c #3D5B9B",
"P  c #3F5D9C",
"I  c #415F9E",
"U  c #41629D",
"Y  c #43639F",
"T  c #44659F",
"R  c #4668A0",
"E  c #486AA1",
"W  c #486BA1",
"Q  c #4160AF",
"!  c #4363B0",
"~  c #4668B2",
"^  c #4768B2",
"/  c #486BB3",
"(  c #4B6EB6",
")  c #4D71B6",
"_  c #537BB9",
"`  c #4668C5",
"'  c #476BC6",
"]  c #476BC7",
"[  c #476CC6",
"{  c #486EC7",
"}  c #4A6FC8",
"|  c #4B6EC9",
" . c #4C6FC9",
".. c #4B71CA",
"X. c #4E72CB",
"o. c #4D74CA",
"O. c #4F73CC",
"+. c #4F74CC",
"@. c #4F78CC",
"#. c #5075CD",
"$. c #5077CD",
"%. c #5177CE",
"&. c #5078CC",
"*. c #537BCE",
"=. c #547BCF",
"-. c #537DCD",
";. c #527CCE",
":. c #557DCF",
">. c #547BD0",
",. c #567FD0",
"<. c #567ED1",
"1. c #5680D0",
"2. c #5781D0",
"3. c #5783D0",
"4. c #5784D0",
"5. c #5983D1",
"6. c #5883D2",
"7. c #5983D2",
"8. c #5885D0",
"9. c #5886D1",
"0. c #5987D1",
"q. c #5A86D3",
"w. c #5B86D3",
"e. c #5B88D3",
"r. c #5C88D3",
"t. c #5C89D4",
"y. c #5D8AD4",
"u. c #5F8CD5",
"i. c #5F8DD5",
/* pixels */
"$.$.$.$.$.$.$.$.4.0.0.0.0.0.0.0.e.0.0.0.0.0.0.0.;.@.o.;.+.@.@.$.$.$.$.$.$.$.$.$.4.9.e.0.0.0.0.0.0.0.0.0.0.0.0.0.&.&.*.X.@.+.@.@.",
"$.$.$.$.$.$.$.$.;.0.0.0.0.0.0.0.4.0.0.0.0.0.9.9.9.@.:.o.*.+.$.$.$.$.$.$.$.$.$.$.*.9.9.0.0.0.0.0.0.0.0.0.0.0.0.0.3.:.*.o.+.*.+.$.",
"$.$.$.$.$.$.$.$.$.4.0.0.0.0.0.0.e.e.0.e.4.4.e.e.9.P ^ L L ^ L L $.$.$.$.@.+.$.$.*.4.4.3.3.-.-.;.-.9.0.0.0.0.0.0.9.&.o.X.$.$.>.+.",
"$.$.$.$.$.$.$.$.$.;.0.0.0.0.0.0.4.:.@.o.o.Q J c V U J ^ L L $.+.~ L L L P P +.O.{ [ X.X.X...} o.o.o.@.3.0.0.0.e.0.0.&.:.$.$.@.@.",
"$.$.$.$.<.<.<.<.<.<.y.i.i.i.i.5.*.*.*./ b P b V V $ 0 = @ q = = A n n I >.>.O.| | | *.*.*.*.*.*.@.;.*.*.:.0.i.i.i.i.1.<.$.$.$.$.",
"$.$.$.$.<.<.<.<.<.<.5.y.i.y.:.*.;.>.v l b 7 ; . O > , e 2 < S n q $ = = > > G G G | X.*.*.*.*.*.&.:.*.*.=.=.r.i.i.i.y.<.$.$.$.$.",
"$.$.$.$.<.<.<.<.<.<.<.y.r.=.*.*./ k P f   2   u 2                   , > | | | | | | { +.*.*.*.*.:.&.:.:.*.*.:.r.i.i.i.5.$.$.$.$.",
"$.$.$.$.<.<.<.<.<.<.<.5.;.*.*.C C C   . 2                                   = = G H | X.*.*.*.*.;.=.:.&.*.*.&.3.i.i.i.y.$.$.$.$.",
"@.+.$.$.<.<.<.<.<.<.<.X.$.*.P V t   *.*.                                      < < | | | *.*.*.*.*.*.*.*.*.*.*.*.y.i.y.i.<.@.$.$.",
"..| ....>.>.<.<.<.<.$.| X.=.C X < f                                             < | | | X.=.*.*.*.*.*.*.*.*.*.*.w.i.y.0.+.{ ] ] ",
"` ` ` ` | | | +.$.>.O.| | P = f ,                                             | | | | | | $.*.*.*.*.*.*.*.*.*.*.<.>.;.*.O.` ` ` ",
"` ` ` ` | | | | | | | | | Q X P                                             G G | | | | { X.*.*.*.*.*.*.*.*.*.*.>.;.;.*.o.O.` ` ",
"` ` ` ` | | | | | | | | | % t             .     = P ^ : X X               = | | | | | | | | $.*.*.*.*.*.*.*.*.*.*.*.*.*.o.o.[ ` ",
"` ` ` ` | | | | | | | | G 9 X           . C P u O X   2 *.*.*.| ! H e . .   .   < | | | | | ..*.*.*.*.*.*.*.*.*.*.*.*.*.o.o...` ",
"` ` ` ` | | | | | | | | Q               b *.< 2 *.*.;.:.*.*.*.X.| | | | | | | | | | | | | | | *.*.*.*.*.*.*.*.*.*.*.;.;.o.o.X.[ ",
"` ` ` ` | | | | | | | | = $             f @ < *.*.*.*.*.*.*.*.@.| | | | | | | | | | | | | | | X.*.*.*.*.*.*.*.*.*.*.;.;.o.o.o...",
"` ` ` ` [ | | | | | | | . $             2 *.*.*.*.*.*.*.*.*.*.*. .| | | | |  . .| | | | | | | | @.*.*.*.*.*.*.*.*.*.*.*.X.o.o.o.",
"X.` ` ` ..| | | | | | | @           O u f *.*.*.*.*.*.*.*.*.*.*.$.| | | | | |  .| | | | | | | | X.*.*.*.*.*.*.*.*.*.*.*.o.o.o.o.",
"X.[ ` ` | | | | | | | | .             < *.*.*.*.*.*.*.*.*.*.*.*.>.#.| | | |  . .| | | | | | | | { &.*.*.*.*.*.*.*.*.*.*.o.o.o.o.",
"o...` ` | | | | | | | < =             u *.*.*.*.*.*.*.:.*.*.*.*.*.$.| | | |  .$.$.>.>.$.$.O.X.| | X.*.*.*.*.*.*.*.*.*.*.o.o.o.o.",
"o.o.[ ` | | | | | | | a ,             @ P / P P P ^ ;.;.<.;.*.*.*.*.O.| $.>.>.<.<.<.<.<.<.<.<.<.$.| $.>.>.>.*.*.*.*.*.*.o.o.o.o.",
"o.X...` | | | | | | | < i             M M D R ) :.*.I ^ P ^ *.*.*.*.<.>.<.<.<.<.3.:.<.<.<.<.<.<.1.:.$.>.=.=.*.*.*.*.*.*.o.o.o.o.",
"o.o.o.[ | | | | | |  .f I             : % 8 $ = : r m C ~ *.U *.*.w.i.5.<.<.<.<.<.<.<.<.<.<.<.<.1.:.<.w.=.=.*.*.*.*.*.*.o.o.o.o.",
"o.o.X.X.| | | |  .$.<.< I               X : 2 p F F : s , t ^ v R i.i.y.<.<.<.<.<.<.<.<.<.<.<.<.<.3.<.5.r.:.*.*.*.*.*.;.o.o.o.o.",
"o.o.o.o.X.{ | | $.<.<.< ( <                         . % N S , e.i.N W i.e.<.<.<.<.<.<.<.<.<.<.<.<.<.<.<.r.0.*.=.*.*.*.*.o.o.o.o.",
"o.o.o.o.$.| | $.<.<.<.f <.,                                 , O q _ E F T ( <.<.<.<.<.<.<.<.<.<.<.<.<.<.5.i.:.=.*.*.*.*.o.o.o.o.",
"o.o.o.o.*.X. .;.<.<.<.1.3 y u                                 = . , , _ E U I <.<.<.<.<.<.<.<.<.<.<.<.<.<.y.0.=.*.*.*.*.o.o.o.o.",
"o.@.o.o.*.$.X.<.<.<.3.<.< 3 @ <                                     r = , h n I ( <.<.<.<.<.<.<.<.<.<.<.<.5.0.=.*.*.*.*.o.o.o.o.",
"9.0.0.9.e.3.X.<.<.<.<.<.<.<.<                                           = E , U <.I <.<.<.<.<.<.<.<.<.<.<.<.0.<.:.5.0.0.3.0.:.0.",
"0.0.0.0.i.i.e.:.<.<.<.<.<.<.<.<.U ,               ,                           u n A <.<.<.<.<.<.<.<.<.<.<.<.<.y.i.i.i.i.0.0.0.0.",
"0.0.0.0.i.i.i.0.<.<.<.<.<.<.<.<.<.<.<.U I <   .         . y                   . O <.n <.<.<.<.<.<.<.<.<.<.<.<.0.i.i.i.i.0.0.4.0.",
"0.0.0.0.i.i.i.e.<.<.<.<.<.<.<.<.<.<.<.+.+.O.O.>.0.y.E <                           , I I <.<.<.<.<.<.<.<.<.<.<.5.i.i.i.i.0.0.0.0.",
"0.0.0.0.i.i.i.i.1.<.<.<.<.<.<.*.$.| | | | | | | $.*.*.<.0..   o @                   <.n <.<.<.<.<.1.<.<.<.<.<.<.y.i.i.i.e.0.0.0.",
"0.0.0.0.i.i.i.i.i.<.<.<.<.>.X.|  .| | | | | | | X.*.*.*.*.0.i.                    .   +.x O.O.O.O.+.<.<.<.<.<.<.1.i.i.i.0.0.0.0.",
"0.0.9.0.i.i.i.i.i.1.<.<.*.| | | { | | | | | | | | *.*.*.*.*.;.r.i.,                   < z | | | | | | O.O.>.<.<.<.y.i.i.0.0.0.0.",
"0.0.e.e.i.i.i.i.i.i.<.O.| | | | | | | | | | | | { X.*.*.*.*.*.*.e.i.3 E % X             ! G | | | | | | | | O.<.<.4.i.i.0.0.0.0.",
"0.0.0.0.i.i.i.i.i.i.1...| | | | | | | | | | | | | | $.=.*.*.*.*.*.y.i.2 2 :           . = G | | | | | | | | | | <.<.y.i.0.0.0.0.",
"0.0.0.0.i.i.i.i.i.i.<.| | | | | | | | | | | | | | | X.*.*.*.*.*.>.<.0.*.2 , .             ! | | | | | | | | | | O.<.w.i.0.0.0.0.",
"0.0.0.0.i.i.i.i.i.i.*...| | | | | | | | | | | | | | { $.*.*.*.*.*.*.;.*.2 >.            O G | | | | | | | | | | | +.<.y.0.0.0.0.",
"0.0.0.0.i.i.i.i.i.y.;.+.| | | | | | | | | | | | | | | X.*.*.*.*.*.*.*.*.*.2             O G | | | | | | | | | | | +.1.1.0.0.0.4.",
"@.*.@.*.:.3.3.r.i.y.*.*.O.| | | | Q | | | | | | | | | | $.*.*.*.*.*.*.*.*.< ;             G | | | | | | | | | | | O.<.O.o.+.o.o.",
"o...o.o.*.*.*.:.*.<.*.*.*.| | Q | G G | | | | | | | | | X.*.*.*.*.*.*.*.*.g 7             ! | | | | | | | | | | | O.| | { ..o.o.",
"o.o.o.o.*.*.*.*.*.*.*.*.*.X.Q B G a G G Q | | | | | | | | X.:.*.*.*.*.*.*.< %             H | | | | | | | | | | | | | | [ ..o.o.",
"o.o.o.o.*.*.*.*.*.*.*.*.*.O.G 6 z ; < | z z | | | | | | | X.;.*.*.*.*.*.:.@ %             P | | | | | | | | | | | | | | ` [ o.o.",
"o.o.o.o.*.*.*.*.*.*.*.*.*.*.a > %   = O | B z G Q | | | | | $.*.*.*.U C k ;               P X.| | | | | | | | | | | | | ` ` | o.",
"o.o.o.o.*.*.*.*.*.*.*.*.*.<.< <       ,   $ B G G Q G G Q H Q P C C b b P   :             *.+.| | | | | | | | | | | | | ` ` [ o.",
"o.o.o.o.*.*.*.*.*.*.*.*.*.*.*.              = = e z B B Q G Q v C C : @   : C             =.*.X.| | | | | | | | | | | | ` ` ` ..",
"o.o.X.X.*.*.*.*.*.*.*.*.*.*./                 = j 5 = = 6 $ 5 = X O   < P             X g ;.*.*.| | | | | | | | | | ..{ ` ` ` [ ",
"..o.o.o.*.*.*.*.*.*.*.*.*.g P P                     , > i < a . f <                 < : < *.*.*.O.| | | | | | | | | | | ` ` ` ` ",
"[ o.o.o.*.*.*.*.*.*.*.*.*., < u u                                                 . I < < *.*.*.+.| | | | | | | | | | | ` ` ` ` ",
"[ ..o.o.*.*.*.*.*.*.*.*.*.*.<   .                                               = b *.< < <.*.*.*.O.| | | | | | | | | | ` ` ` ` ",
"` [ o.o.*.*.*.*.*.*.*.*.*.*.<.;.    .                                         $ b *.< < *.*.*.*.*.@.| | | | | | | | | | ` ` ` ` ",
"` ` ..o.;.;.*.*.*.*.*.*.*.*.*.<.1.w..                                       % I *.< 2 <.:.*.*.*.*.*.O.{ | | | | | | | | ` ` ` ` ",
"` ` [ o.:.;.*.*.*.*.*.:.*.5.i.i.i.i.y.<.,                             . = P U <   3 i.i.i.i.r.0.*.*.;.[ | | | | | | | | ` ` ` ` ",
"` ` ` } *.*.*.*.*.*.;.1.y.i.i.i.i.i.i.7.<.<.R e         .   X   . = G / : @ @ 3 i.i.i.i.i.i.i.i.i.0.>.X.| | | | | | | | ` ` ` ` ",
"` ` ` ` *.*.*.*.*.*.1.i.i.i.i.i.i.i.i.y.<.<.<.<.<.( R e O   O . O O O O 3 i.i.i.i.i.i.i.i.i.i.i.i.i.e.:.| | | | | | | | ` ` ` ` ",
"` ` ` ` +.*.*.*.*.:.y.i.i.i.i.i.i.i.i.i.4.<.<.<.<.<.<.<.<.>...| | | | $.y.y.i.i.i.i.i.i.i.i.i.i.i.i.i.i.+.| | | | | | | ` ` ` ` ",
"` ` ` ` +.*.*.*.*.0.i.i.i.i.i.i.i.i.i.i.e.<.<.<.<.<.<.<.<.<.<...| | $.<.5.y.i.i.i.i.i.i.i.i.i.i.i.i.i.i.e.X.| | | | | | ` ` ` ` ",
"` ` [ ` | ;.*.*.:.i.i.i.i.i.i.i.i.i.i.i.i.6.<.<.<.<.<.<.<.<.<.>.| +.<.<.<.y.i.i.i.i.i.i.i.i.i.i.i.i.i.i.i.9.| | | | | | ` { ` ` ",
"..X.X.+.+.*.<.;.0.i.i.i.i.i.i.i.i.i.i.i.i.y.<.<.<.<.<.<.<.<.<.<.+.1.<.<.<.7.i.i.i.i.i.i.i.i.i.i.i.i.i.i.i.r.o...| | | | ] [ | X.",
"+.+.@.+.@.*.1.0.0.0.0.0.e.0.0.0.0.0.0.0.0.0.>.@.+.@.%.@.+.%.@.%.+.%.@.+.$.$.5.0.0.0.0.0.0.0.0.0.e.0.0.0.0.0.@.[ ..X.$.$.+.*.$.#.",
"@.*.+.*.+.+.;.e.0.0.0.0.0.0.0.0.0.0.0.0.0.0.4.@.*.+.+.%.%.@.%.@.%.@.%.*.$.$.>.0.0.0.0.0.0.0.0.0.0.0.0.0.e.4.4.@.X.$.$.$.$.$.$.$.",
"@.+.@.@.o.*.X.3.0.0.0.0.0.0.0.0.0.0.0.0.0.0.0.>.%.@.%.@.@.%.+.%.@.%.+.$.>.@.@.4.0.0.0.0.0.0.0.0.0.0.0.0.0.e.e.;.*.+.$.$.$.$.$.$.",
"+.*.@.+.*.o.=.*.0.0.0.0.0.0.0.0.0.0.0.0.0.0.e.4.+.%.@.%.%.@.%.@.%.@.$.@.+.+.@.>.0.0.0.0.0.0.0.0.0.0.0.0.4.e.4.4.+.*.$.$.$.$.$.$."
};
