/* XPM */
static char *e06356187e5d4f63cb01f9366510f3621gqo5IXEcU6A1GEh[] = {
/* columns rows colors chars-per-pixel */
"64 64 127 2 ",
"   c black",
".  c #010102",
"X  c #010203",
"o  c #010204",
"O  c #020204",
"+  c #030406",
"@  c #030407",
"#  c #030408",
"$  c #030509",
"%  c #040608",
"&  c #040609",
"*  c #05070B",
"=  c #05070D",
"-  c #06090D",
";  c #06090F",
":  c #070A11",
">  c #070A13",
",  c #080B13",
"<  c #080C12",
"1  c #080C13",
"2  c #080C14",
"3  c #090D14",
"4  c #080C16",
"5  c #0A0F17",
"6  c #090E19",
"7  c #0A0F1A",
"8  c #0B0F1B",
"9  c #0B101A",
"0  c #0C121B",
"q  c #0D1323",
"w  c #0F1628",
"e  c #11182A",
"r  c #11192A",
"t  c #11192F",
"y  c #141D30",
"u  c #141D36",
"i  c #162137",
"p  c #172238",
"a  c #17223D",
"s  c #18233E",
"d  c #19263F",
"f  c #1A2740",
"g  c #1A2747",
"h  c #1B2847",
"j  c #1D2A49",
"k  c #1E2C4A",
"l  c #21314B",
"z  c #22324B",
"x  c #2B3F68",
"c  c #2C4174",
"v  c #304676",
"b  c #314878",
"n  c #36517A",
"m  c #314884",
"M  c #375188",
"N  c #39538A",
"B  c #3F5D8C",
"V  c #395398",
"C  c #3A5498",
"Z  c #3D5B9B",
"A  c #3F5D9C",
"S  c #405E9C",
"D  c #405F9D",
"F  c #415F9E",
"G  c #41609D",
"H  c #43629E",
"J  c #43669E",
"K  c #486BA1",
"L  c #4160AF",
"P  c #4768B2",
"I  c #4769B3",
"U  c #486BB3",
"Y  c #496BB5",
"T  c #4A6DB5",
"R  c #4B6EB6",
"E  c #4C70B5",
"W  c #4D72B7",
"Q  c #537BB9",
"!  c #4668C5",
"~  c #476BC7",
"^  c #476CC6",
"/  c #486DC7",
"(  c #4B6EC9",
")  c #4A6FC9",
"_  c #4C6FC9",
"`  c #4A70C9",
"'  c #4B71CA",
"]  c #4D72CA",
"[  c #4D73CB",
"{  c #4E73CB",
"}  c #4D74CA",
"|  c #4F76CB",
" . c #4F78CC",
".. c #5075CD",
"X. c #5076CC",
"o. c #5077CD",
"O. c #5177CE",
"+. c #527BCD",
"@. c #517BCE",
"#. c #537BCE",
"$. c #547BCF",
"%. c #537CCD",
"&. c #537DCD",
"*. c #527CCE",
"=. c #547FCE",
"-. c #557ECF",
";. c #547BD0",
":. c #567ED1",
">. c #5680D0",
",. c #5780D0",
"<. c #5781D0",
"1. c #5682D0",
"2. c #5784D0",
"3. c #5983D1",
"4. c #5883D2",
"5. c #5885D0",
"6. c #5886D1",
"7. c #5987D1",
"8. c #5B86D3",
"9. c #5B88D3",
"0. c #5C88D3",
"q. c #5C89D4",
"w. c #5D8AD4",
"e. c #5E8BD4",
"r. c #5E8CD5",
"t. c #5F8CD5",
"y. c #5F8DD5",
/* pixels */
"o.o.o.o.o.o.o.o.2.7.7.7.7.7.7.7.7.7.7.7.7.7.7.7.+.| *.| o.o.o.o.o.o.o.o.o.o.o.o.2.7.7.7.7.7.7.7.7.7.7.7.7.7.7.7.*.&.o.o.o.o.o.o.",
"o.o.o.o.o.o.o.o.*.7.7.7.7.7.7.7.7.7.7.7.7.7.7.7.2. . .| o.o.o.o.o.o.o.o.o.o.o.o.*.9.7.7.7.7.7.7.7.7.7.7.7.7.7.7.<.| o. .o.o.o.o.",
"o.o.o.o.o.o.o.o.o.2.7.7.7.7.7.7.2.9.7.0.2.2.6.9.7.#. . .o.o.o.o.o.o.o.o.o.o.o.o.| <.5.<.*.+.X.+.+.2.7.7.7.7.7.7.7.*.X. .o.o.o.o.",
"o.o.o.o.o.o.o.o.o.*.7.J 7.7.7.7.2.<.| ' | } } | #.>.o.o.o.o.o.o.o.o.o.o.o.o.o.' ' / | ' | } | | } }  .<.5.7.7.7.7.5.#.| o.o.o.o.",
"o.o.o.o.:.:.:.:.:.D w.K y.y.y.3.#.#.#.#.#.#.#.#.#.#. .;.:.:.:.:.:.:.:.:.:.;.' ( ( ( o.$.#.#.*.P +.>.#.#.-.7.y.y.t.t.3.:.o.o.o.o.",
"o.o.o.o.:.:.:.:.D b 3.3 y.w.D #.#.#.#.#.#.#.#.#.#.#.#.( #.:.:.:.:.:.:.:.o.( ( ( ( ( ' -.#.Y *.A +.+.$.*.$.$.0.y.t.t.w.:.o.o.o.o.",
"o.o.o.o.:.:.:.:.D , :.3 0.$.A #.#.#.#.#.#.#.#.#.#.#.#.( (  .:.:.:.:.;.( ( ( ( ( ( ( ( $.U M #.p *.#.P *.#.#.$.0.t.y.t.7.o.o.o.o.",
"o.o.o.o.:.:.:.:., : :.  *.7 A A #.#.#.#.#.#.#.#.#.#.#.#.( ( o.:.:.:.( ( ( ( ( ( ( ( ( ' A r A 7 #.#.A *.#.#.+.<.y.y.t.8.o.o.o.o.",
"| | o.o.:.:.:.:., ;       7 3 A #.#.#.#.#.#.#.#.#.#.#.#.' ( ( #.:.X.( ( ( ( ( ( ( ( ( ( e , A   #.k A Y #.#.#.#.y.y.w.y.*.#.| | ",
"( ( ' ' #.$.:.:.3             A #.#.#.#.#.#.#.#.#.#.#.#.o.( ( ( $.( ( ( ( ( ( ( ( ( ( V , 9       : k A #.#.#.#.9.y.w.3.#.~ ~ ~ ",
"! ! ! ! ( ( ( ' =             D #.#.#.#.#.#.#.#.#.#.#.#.$.' ( ( ( ( ( ( ( ( ( ( ( ( ( V             & D #.#.#.#.*.:.#.#.' ~ ! ! ",
"! ! ! ! ( ( ( 7 :           o A #.#.#.#.#.#.#.#.#.#.$.$.$.o.( ( ( ( ( ( ( ( ( ( ( ( ( : =             #.#.#.#.#.#.#.#.#.| ' ! ! ",
"! ! ! ! ( ( ( 7 :           o v #.#.#.#.#.#.#.#.#.#.#.#.#.#.' ( ( ( ( ( ( ( ( ( ( ( ( o =           3 #.#.#.#.#.#.#.#.#.' ' ^ ! ",
"! ! ! ! ( ( ( 7 u             M #.#.#.#.#.#.#.#.#.#.#.#.#.#.#.( ( ( ( ( ( ( ( ( ( ( ( o             A #.#.#.#.#.#.#.#.#.| | ' ! ",
"! ! ! ! ( ( ( 7 V             P A #.#.#.#.#.#.#.#.#.#.#.#.#.#.' ( ( ( ( ( ( ( ( ( ( (               p #.#.#.#.#.#.#.#.#.} } } ^ ",
"! ! ! ! ( ( ( 7 V             7 v #.#.#.#.#.#.#.#.#.#.A #.#.#.#.( ( ( ( ( ( ( ( ( ( 7 =             : #.#.#.#.#.#.#.*.+.} } } ' ",
"~ ! ! ! / ( ( 7 L o           o Z $.#.#.#.#.#.#.*.D #.A A #.#.#._ ( ( ( ( ( ( ( ( ( 8 -             3 #.#.#.#.#.#.#.#.#.' | ' | ",
"' ! ! ! ( ( ( g ( ,             C A #.#.#.#.#.#.H c A , A #.A #.O.( ( ( ( ( ( ' ( / 8 -             A #.#.#.#.#.#.#.#.#.| ' ' | ",
"' ^ ~ ! ( ( ( ( 7 u           9 3 I ;.#.#.#.#.#.H # v 3 3 #.A H $.X.( ( ( ( ( ( ( ( 8 w             P *.#.#.#.#.#.#.#.#.} } | ' ",
"| ' ! ! ( ( ( ( 7 L o           # c #.#.#.#.#.#.1 & ;   8 , A c $.X.( ( ( ( ( o.o.-.9 1             A <.#.#.#.#.#.#.#.#.} } } | ",
"} ] / ! ( ( ( ( g ( o           # m  .;.#.#.#.#.;         9   N D $.' ( o.;.:.:.:.:.8 ;             A #.#.#.#.#.#.#.#.#.} } } } ",
"} | ' ! ( ( ( ( ( 7 s             I D w.w.7.7.H :             3 v $.:.:.:.:.:.:.:.:.9 t             I ;.#.#.#.#.#.#.#.#.} } } } ",
"} } ' / ( ( ( ( ( h C           & 9 N w.y.y.y.K                 S 5.y.<.:.:.:.:.:.:.k 3           o D 8.#.#.#.#.#.#.#.#.} } } } ",
"} } ' ' ( ( ( ( ( 7 T 9           o N 3.y.y.y.o :               0.S y.0.:.:.:.:.:.-.8 -             D 3.w.#.#.#.#.#.#.*.} } } } ",
"} } } } ' ( ( ( X.k :.,           o D T 0.y.y.o @             3 5 S e.e.5.2.%.%.:.:.9 t             R :.0.7.#.#.#.#.#.#.} } } } ",
"} } } } o.( ( X.:.:.8 p           & f D 3.y.Q                     y.S y.e.2.%.=.:.:.k 1             D :.7.y.:.$.#.#.#.#.} } } } ",
"} } } } #.' ( :.:.:.8 R o           & b *.y.D                     z H 9.y.5.,.%.:.:.9 1           o D :.:.w.7.$.#.#.#.#.} } } } ",
"} X.} } #.$.( :.:.:.k :.&           o F 3.E   ;                 @   0.D y.e.&.,.:.:.9 t             R :.:.3.8.$.#.#.#.#.} } } } ",
"7.7.7.5.9.<.| -.:.:.:.k p             R D N   D                 . % 3 S e.e.5.=.:.:.k t             R :.:.:.7.;.*.<.7.7.<.<.2.2.",
"7.7.7.7.y.y.8.-.:.:.:.9 D           8 3 D y &                   . . % y.S e.t.=.:.:.8 ,           o D :.:.:.>.w.y.y.y.y.9.7.7.7.",
"7.7.7.7.y.y.y.7.:.:.:.9 R &           & x # 3                   . . % z S e.t.3.:.:.0 p           o R :.:.:.:.0.y.y.y.y.7.7.7.7.",
"7.7.7.7.y.y.y.0.:.:.:.k :.            3 8 &             & ;     . . . . e.n e.t.:.:.k ,             D :.:.:.:.2.y.y.y.y.7.7.7.7.",
"7.7.7.7.y.y.y.y.>.:.:.:.8 8           #   :           o 9       . .   & 3 K t.t.3.:.k y             T :.:.:.:.:.w.t.t.t.0.9.7.7.",
"7.7.7.7.y.y.y.y.w.:.:.:.k Y             3           o k 9 p l     .       t.n t.7.| 8 >           o D :.:.:.:.:.3.t.t.t.9.9.7.7.",
"7.7.7.7.y.y.y.y.y.3.:.:.k V                         : 7 o -.p             3 W H #.' g y           o L ( o.$.:.:.:.w.t.t.7.7.7.7.",
"7.7.7.7.y.y.y.y.y.w.:. .8 L g                     # i k #.7 3 9             S M #. .7 =             V ' ( ( X.:.:.>.t.t.7.7.7.7.",
"7.7.7.7.y.y.y.y.y.y.:.( g ( >                     # 7 7 *.h $.1           &   :.v #.s q           o L ( ( ( ( ( :.:.9.y.7.7.7.7.",
"7.7.7.7.y.y.y.y.y.y.:.( ( 3 u #                   o h #.-.X.3 d k             3 I A 3 o             V ( ( ( ( ( ' :.2.y.7.7.7.7.",
"7.7.7.7.y.y.y.y.y.y.;.' ( 7 (                   o 7 7 #.-.-.k -.3 3             A b : =           o ( ( ( ( ( ( ( o.*.y.7.7.7.7.",
"7.7.7.7.y.y.y.y.y.0.*.*.( ( 9 ,                   7 ( ' X.$.*.9 k p           &   :.  :           o ( ( ( ( ( ( ( { 2.2.7.9.2.2.",
"| #. .+.*.<.5.0.y.0.-.#.' ( g V               o u g ( ( o.$.$.X.7 1 7             3 o             u ( ( ( ( ( ( (  .:.o...' ' X.",
"| ' } } *.*.#.-.#.:.*.#.#.( 7 L #               7 7 ( ( ' $.-.X.k $.1 ,             o             1 ( ( ( ( ( ( ( ' ( ( ! X.X.' ",
"' ' | } #.#.#.#.#.#.#.#.$.' g ( o             & h ( ( ( ( X.-.$.#.7 k i                         o u ( ( ( ( ( ( ( ( ( ( ! ] } } ",
"| | ' | #.#.#.#.#.#.#.#.#.#./ 7 o           > 8 8 ( ( ( ( ' $.%.#.$.7 , 3                         9 ( ( ( ( ( ( ( ( ( ( ! ^ } } ",
"} } } } #.#.#.#.#.#.#.#.#.#.' 7 : 7       u > 7 ( ( ( ( ( ( o.$.#.#.7 #., 1                     @ ( ( ( ( ( ( ( ( ( ( ( ! ! ' ] ",
"} } } ] #.#.#.#.#.#.#.#.#.$.o.7 ( 7 o   = > o 7 ( ( ( ( ( ( ( $.#.#.#.7 7 1                     , ( ( ( ( ( ( ( ( ( ( ( ! ! ^ } ",
"} } | | #.#.#.#.#.#.#.#.#.#.#.' ( 7 7 = V 7   7 ( ( ( ( ( ( ( o.#.#.#.#.7 1 1                   7 ( ( ( ( ( ( ( ( ( ( ( ! ! ! ' ",
"} } ' ' #.#.#.#.#.#.#.#.#.#.#.| ( ( ( V ( 7 7 ( ( ( ( ( ( ( ( X.#.#.#.#.7 #.1                 & g ( ( ( ( ( ( ( ( ( ( / ! ! ! ^ ",
"' } } } #.#.#.#.#.#.#.#.#.#.#.#.' ( ( ( ( ( ( ( ( ( ( ( ( ( ( ( o.#.#.#.#.7 3 1             : 7 7 ( ( ( ( ( ( ( ( ( ( ( ! ! ! ! ",
"^ } } } #.#.#.#.#.#.#.#.#.#.#.#.#.( ( ( ( ( ( ( ( ( ( ( ( ( ( ( ' #.#.#.#.7 7 1 o         #.p k o.( ( ( ( ( ( ( ( ( ( ( ! ! ! ! ",
"! ' } } #.#.#.#.#.#.#.#.#.#.#.#.;.' ( ( ( ( ( ( ( ( ( ( ( ( ( ( ( #.#.#.#.#.7   o         A 7 7 -.' ( ( ( ( ( ( ( ( ( ( ! ! ! ! ",
"! ^ } } #.#.#.#.#.#.#.#.#.#.#.#.;.O.( ( ( ( ( ( ( ( ( ( ( ( ( ( ( ' #.#.#.#.$.*.7 o   o   8 7 7 $.o.( ( ( ( ( ( ( ( ( ( ! ! ! ! ",
"! ! ' } +.$.#.#.#.#.$.$.#.#.#.-.8.8.;. .{  .` ` ( ( ( ( ( ( ( ( ( ( o.$.#.#.#.*.;.;.D D 9 o 8 #.#.#.' ( ( ( ( ( ( ( ( ( ! ! ! ! ",
"! ! ^ } #.#.#.#.#.#.#.$.-.5.0.y.t.t.q.:.:.:.:.;.#.( ( ( ( ( ( ( ( ( ' $.#.#.#.*.7.w.w.y.y.y.q.7.-.#.#.( ( ( ( ( ( ( ( ( ! ! ! ! ",
"! ! ! ' #.#.#.#.#.#.-.-.y.y.y.0.r.t.r.4.:.:.:.:.:.:.;.' ( ( ' ( ( ( ( o.*.<.w.y.t.t.t.t.y.y.y.y.0.7.-.' ( ( ( ( ( ( ( ( ! ! ! ! ",
"! ! ! ^ #.#.#.#.#.#.5.y.y.y.y.y.r.r.r.w.:.:.:.:.:.:.:.:.o.( ( ( ( ( ' ' 9.t.t.t.t.t.t.t.y.y.y.y.y.y.0.-.( ( ( ( ( ( ( ( ! ! ! ! ",
"! ! ! ! #.#.#.#.#.-.t.t.t.y.y.y.y.y.y.y.>.>.:.:.:.:.:.:.:.#.( ( ( ( ( o.e.t.t.t.y.y.y.y.y.y.y.y.y.y.y.y. .( ( ( ( ( ( ( ! ! ! ! ",
"! ! ! ! ' #.#.#.$.7.t.t.t.t.y.y.y.y.y.y.w.:.:.:.:.:.:.:.:.:.:.' ( ( X.:.3.e.t.t.y.y.y.y.y.y.y.y.y.y.y.y.w.( ( ( ( ( ( ( ! ! ! ! ",
"! ! ! ! (  .*.#.-.y.y.t.y.y.y.y.y.y.y.y.y.4.>.:.:.:.:.:.:.:.:.:.( X.$.:.:.0.t.t.y.y.y.y.y.y.y.y.y.y.y.y.w.>.( ( ( ( ( ] ! ! ! ! ",
"' o.| ' o.#.:.*.<.y.y.e.y.y.y.y.y.y.y.y.y.w.>.:.:.:.:.:.:.:.:.;.O.:.:.:.:.7.t.t.y.y.y.y.y.y.y.y.y.y.y.y.w.w. .' ( ( ( ( ^ ( ( ( ",
"o.o.o.o.X.#.2.2.2.7.7.7.0.7.7.7.7.7.7.7.7.7.;.o. .o.O. .o.o.o.o.o.o.o.X.#.o.7.7.7.7.7.7.7.7.7.7.q.7.7.7.7.7. .~ ( ' o.o.X.X.X.X.",
"o.o.o.o.X.X.#.9.7.7.7.7.9.7.7.7.7.7.7.7.7.7.>. .O. .O.o.O.o.o.#.#.X.o.o.o.o.$.7.7.7.7.7.7.7.7.7.7.7.7.7.7.7.>.#.#.o.o.o.$.X.#.X.",
"o.o.o.o.|  .+.2.7.7.7.7.7.7.7.7.7.7.7.7.7.7.7.#.o.o.o.o.o.{ o.o.o.X.X.o.X.o.X.<.7.7.7.7.7.7.7.7.7.7.7.7.7.7.7.#. .o.| o.o.X.| o.",
"o.o.o.o. .+.| *.7.7.7.7.7.7.7.7.7.7.7.7.7.7.7.3.o.o.o.o.o.o.o.o.o.o.o.| $. .| $.7.7.7.7.7.7.7.7.7.7.7.7.7.7.7.>.o.o.o.#.o.o.X.o."
};
